<?xml version='1.0' encoding='UTF-8' standalone='no'?>
<!-- Created with Fritzing (http://www.fritzing.org/) -->
<svg xmlns="http://www.w3.org/2000/svg" viewBox="0 0 19.6596 13.9192" baseProfile="tiny" width="0.774in" height="0.548in" y="0in" x="0in"  version="1.2">
    <desc >
        <referenceFile >sparkfun-displays_7-segment-4digit_longpads_for_pogobed_pcb.svg</referenceFile>
    </desc>
    <g gorn="0.1" id="copper1" >
        <circle gorn="0.1.0" connectorname="1" r="0.7239" cx="0.9398" stroke="#F7BD13" id="connector0pad" fill="none" cy="12.0396"  stroke-width="0.4318"/>
        <path stroke="none" fill="#F7BD13"  d="m0.9398,10.16a0.9398,0.9398 0 0 1 0.9398,0.9398l0,1.8796a0.9398,0.9398 0 0 1 -0.9398,0.9398l-0,0a0.9398,0.9398 0 0 1 -0.9398,-0.9398l0,-1.8796a0.9398,0.9398 0 0 1 0.9398,-0.9398l0,0zM0.4318,12.0396a0.508,0.508 0 1 0 1.016,0 0.508,0.508 0 1 0 -1.016,0z&#xa;" stroke-width="0"/>
        <circle gorn="0.1.2" connectorname="2" r="0.7239" cx="3.4798" stroke="#F7BD13" id="connector1pad" fill="none" cy="12.0396"  stroke-width="0.4318"/>
        <path stroke="none" fill="#F7BD13"  d="m3.4798,10.16a0.9398,0.9398 0 0 1 0.9398,0.9398l0,1.8796a0.9398,0.9398 0 0 1 -0.9398,0.9398l-0,0a0.9398,0.9398 0 0 1 -0.9398,-0.9398l0,-1.8796a0.9398,0.9398 0 0 1 0.9398,-0.9398l0,0zM2.9718,12.0396a0.508,0.508 0 1 0 1.016,0 0.508,0.508 0 1 0 -1.016,0z&#xa;" stroke-width="0"/>
        <circle gorn="0.1.4" connectorname="3" r="0.7239" cx="6.0198" stroke="#F7BD13" id="connector2pad" fill="none" cy="12.0396"  stroke-width="0.4318"/>
        <path stroke="none" fill="#F7BD13"  d="m6.0198,10.16a0.9398,0.9398 0 0 1 0.9398,0.9398l0,1.8796a0.9398,0.9398 0 0 1 -0.9398,0.9398l-0,0a0.9398,0.9398 0 0 1 -0.9398,-0.9398l0,-1.8796a0.9398,0.9398 0 0 1 0.9398,-0.9398l0,0zM5.5118,12.0396a0.508,0.508 0 1 0 1.016,0 0.508,0.508 0 1 0 -1.016,0z&#xa;" stroke-width="0"/>
        <circle gorn="0.1.6" connectorname="4" r="0.7239" cx="8.5598" stroke="#F7BD13" id="connector3pad" fill="none" cy="12.0396"  stroke-width="0.4318"/>
        <path stroke="none" fill="#F7BD13"  d="m8.5598,10.16a0.9398,0.9398 0 0 1 0.9398,0.9398l0,1.8796a0.9398,0.9398 0 0 1 -0.9398,0.9398l-0,0a0.9398,0.9398 0 0 1 -0.9398,-0.9398l0,-1.8796a0.9398,0.9398 0 0 1 0.9398,-0.9398l0,0zM8.0518,12.0396a0.508,0.508 0 1 0 1.016,0 0.508,0.508 0 1 0 -1.016,0z&#xa;" stroke-width="0"/>
        <circle gorn="0.1.8" connectorname="5" r="0.7239" cx="11.0998" stroke="#F7BD13" id="connector4pad" fill="none" cy="12.0396"  stroke-width="0.4318"/>
        <path stroke="none" fill="#F7BD13"  d="m11.0998,10.16a0.9398,0.9398 0 0 1 0.9398,0.9398l0,1.8796a0.9398,0.9398 0 0 1 -0.9398,0.9398l-0,0a0.9398,0.9398 0 0 1 -0.9398,-0.9398l0,-1.8796a0.9398,0.9398 0 0 1 0.9398,-0.9398l0,0zM10.5918,12.0396a0.508,0.508 0 1 0 1.016,0 0.508,0.508 0 1 0 -1.016,0z&#xa;" stroke-width="0"/>
        <circle gorn="0.1.10" connectorname="6" r="0.7239" cx="13.6398" stroke="#F7BD13" id="connector5pad" fill="none" cy="12.0396"  stroke-width="0.4318"/>
        <path stroke="none" fill="#F7BD13"  d="m13.6398,10.16a0.9398,0.9398 0 0 1 0.9398,0.9398l0,1.8796a0.9398,0.9398 0 0 1 -0.9398,0.9398l-0,0a0.9398,0.9398 0 0 1 -0.9398,-0.9398l0,-1.8796a0.9398,0.9398 0 0 1 0.9398,-0.9398l0,0zM13.1318,12.0396a0.508,0.508 0 1 0 1.016,0 0.508,0.508 0 1 0 -1.016,0z&#xa;" stroke-width="0"/>
        <circle gorn="0.1.12" connectorname="7" r="0.7239" cx="16.1798" stroke="#F7BD13" id="connector6pad" fill="none" cy="12.0396"  stroke-width="0.4318"/>
        <path stroke="none" fill="#F7BD13"  d="m16.1798,10.16a0.9398,0.9398 0 0 1 0.9398,0.9398l0,1.8796a0.9398,0.9398 0 0 1 -0.9398,0.9398l-0,0a0.9398,0.9398 0 0 1 -0.9398,-0.9398l0,-1.8796a0.9398,0.9398 0 0 1 0.9398,-0.9398l0,0zM15.6718,12.0396a0.508,0.508 0 1 0 1.016,0 0.508,0.508 0 1 0 -1.016,0z&#xa;" stroke-width="0"/>
        <circle gorn="0.1.14" connectorname="8" r="0.7239" cx="18.7198" stroke="#F7BD13" id="connector7pad" fill="none" cy="12.0396"  stroke-width="0.4318"/>
        <path stroke="none" fill="#F7BD13"  d="m18.7198,10.16a0.9398,0.9398 0 0 1 0.9398,0.9398l0,1.8796a0.9398,0.9398 0 0 1 -0.9398,0.9398l-0,0a0.9398,0.9398 0 0 1 -0.9398,-0.9398l0,-1.8796a0.9398,0.9398 0 0 1 0.9398,-0.9398l0,0zM18.2118,12.0396a0.508,0.508 0 1 0 1.016,0 0.508,0.508 0 1 0 -1.016,0z&#xa;" stroke-width="0"/>
        <circle gorn="0.1.16" connectorname="9" r="0.7239" cx="18.7198" stroke="#F7BD13" id="connector8pad" fill="none" cy="1.8796"  stroke-width="0.4318"/>
        <path stroke="none" fill="#F7BD13"  d="m18.7198,0a0.9398,0.9398 0 0 1 0.9398,0.9398l0,1.8796a0.9398,0.9398 0 0 1 -0.9398,0.9398l-0,0a0.9398,0.9398 0 0 1 -0.9398,-0.9398l0,-1.8796a0.9398,0.9398 0 0 1 0.9398,-0.9398l0,0zM18.2118,1.8796a0.508,0.508 0 1 0 1.016,0 0.508,0.508 0 1 0 -1.016,0z&#xa;" stroke-width="0"/>
        <circle gorn="0.1.18" connectorname="11" r="0.7239" cx="13.6398" stroke="#F7BD13" id="connector9pad" fill="none" cy="1.8796"  stroke-width="0.4318"/>
        <path stroke="none" fill="#F7BD13"  d="m13.6398,0a0.9398,0.9398 0 0 1 0.9398,0.9398l0,1.8796a0.9398,0.9398 0 0 1 -0.9398,0.9398l-0,0a0.9398,0.9398 0 0 1 -0.9398,-0.9398l0,-1.8796a0.9398,0.9398 0 0 1 0.9398,-0.9398l0,0zM13.1318,1.8796a0.508,0.508 0 1 0 1.016,0 0.508,0.508 0 1 0 -1.016,0z&#xa;" stroke-width="0"/>
        <circle gorn="0.1.20" connectorname="13" r="0.7239" cx="8.5598" stroke="#F7BD13" id="connector10pad" fill="none" cy="1.8796"  stroke-width="0.4318"/>
        <path stroke="none" fill="#F7BD13"  d="m8.5598,0a0.9398,0.9398 0 0 1 0.9398,0.9398l0,1.8796a0.9398,0.9398 0 0 1 -0.9398,0.9398l-0,0a0.9398,0.9398 0 0 1 -0.9398,-0.9398l0,-1.8796a0.9398,0.9398 0 0 1 0.9398,-0.9398l0,0zM8.0518,1.8796a0.508,0.508 0 1 0 1.016,0 0.508,0.508 0 1 0 -1.016,0z&#xa;" stroke-width="0"/>
        <circle gorn="0.1.22" connectorname="14" r="0.7239" cx="6.0198" stroke="#F7BD13" id="connector11pad" fill="none" cy="1.8796"  stroke-width="0.4318"/>
        <path stroke="none" fill="#F7BD13"  d="m6.0198,0a0.9398,0.9398 0 0 1 0.9398,0.9398l0,1.8796a0.9398,0.9398 0 0 1 -0.9398,0.9398l-0,0a0.9398,0.9398 0 0 1 -0.9398,-0.9398l0,-1.8796a0.9398,0.9398 0 0 1 0.9398,-0.9398l0,0zM5.5118,1.8796a0.508,0.508 0 1 0 1.016,0 0.508,0.508 0 1 0 -1.016,0z&#xa;" stroke-width="0"/>
        <circle gorn="0.1.24" connectorname="15" r="0.7239" cx="3.4798" stroke="#F7BD13" id="connector12pad" fill="none" cy="1.8796"  stroke-width="0.4318"/>
        <path stroke="none" fill="#F7BD13"  d="m3.4798,0a0.9398,0.9398 0 0 1 0.9398,0.9398l0,1.8796a0.9398,0.9398 0 0 1 -0.9398,0.9398l-0,0a0.9398,0.9398 0 0 1 -0.9398,-0.9398l0,-1.8796a0.9398,0.9398 0 0 1 0.9398,-0.9398l0,0zM2.9718,1.8796a0.508,0.508 0 1 0 1.016,0 0.508,0.508 0 1 0 -1.016,0z&#xa;" stroke-width="0"/>
        <circle gorn="0.1.26" connectorname="16" r="0.7239" cx="0.9398" stroke="#F7BD13" id="connector13pad" fill="none" cy="1.8796"  stroke-width="0.4318"/>
        <path stroke="none" fill="#F7BD13"  d="m0.9398,0a0.9398,0.9398 0 0 1 0.9398,0.9398l0,1.8796a0.9398,0.9398 0 0 1 -0.9398,0.9398l-0,0a0.9398,0.9398 0 0 1 -0.9398,-0.9398l0,-1.8796a0.9398,0.9398 0 0 1 0.9398,-0.9398l0,0zM0.4318,1.8796a0.508,0.508 0 1 0 1.016,0 0.508,0.508 0 1 0 -1.016,0z&#xa;" stroke-width="0"/>
        <g gorn="0.1.28" id="copper0" >
            <circle gorn="0.1.28.0" connectorname="1" r="0.7239" cx="0.9398" stroke="#F7BD13" id="connector0pad" fill="none" cy="12.0396"  stroke-width="0.4318"/>
            <path stroke="none" fill="#F7BD13"  d="m0.9398,10.16a0.9398,0.9398 0 0 1 0.9398,0.9398l0,1.8796a0.9398,0.9398 0 0 1 -0.9398,0.9398l-0,0a0.9398,0.9398 0 0 1 -0.9398,-0.9398l0,-1.8796a0.9398,0.9398 0 0 1 0.9398,-0.9398l0,0zM0.4318,12.0396a0.508,0.508 0 1 0 1.016,0 0.508,0.508 0 1 0 -1.016,0z&#xa;" stroke-width="0"/>
            <circle gorn="0.1.28.2" connectorname="2" r="0.7239" cx="3.4798" stroke="#F7BD13" id="connector1pad" fill="none" cy="12.0396"  stroke-width="0.4318"/>
            <path stroke="none" fill="#F7BD13"  d="m3.4798,10.16a0.9398,0.9398 0 0 1 0.9398,0.9398l0,1.8796a0.9398,0.9398 0 0 1 -0.9398,0.9398l-0,0a0.9398,0.9398 0 0 1 -0.9398,-0.9398l0,-1.8796a0.9398,0.9398 0 0 1 0.9398,-0.9398l0,0zM2.9718,12.0396a0.508,0.508 0 1 0 1.016,0 0.508,0.508 0 1 0 -1.016,0z&#xa;" stroke-width="0"/>
            <circle gorn="0.1.28.4" connectorname="3" r="0.7239" cx="6.0198" stroke="#F7BD13" id="connector2pad" fill="none" cy="12.0396"  stroke-width="0.4318"/>
            <path stroke="none" fill="#F7BD13"  d="m6.0198,10.16a0.9398,0.9398 0 0 1 0.9398,0.9398l0,1.8796a0.9398,0.9398 0 0 1 -0.9398,0.9398l-0,0a0.9398,0.9398 0 0 1 -0.9398,-0.9398l0,-1.8796a0.9398,0.9398 0 0 1 0.9398,-0.9398l0,0zM5.5118,12.0396a0.508,0.508 0 1 0 1.016,0 0.508,0.508 0 1 0 -1.016,0z&#xa;" stroke-width="0"/>
            <circle gorn="0.1.28.6" connectorname="4" r="0.7239" cx="8.5598" stroke="#F7BD13" id="connector3pad" fill="none" cy="12.0396"  stroke-width="0.4318"/>
            <path stroke="none" fill="#F7BD13"  d="m8.5598,10.16a0.9398,0.9398 0 0 1 0.9398,0.9398l0,1.8796a0.9398,0.9398 0 0 1 -0.9398,0.9398l-0,0a0.9398,0.9398 0 0 1 -0.9398,-0.9398l0,-1.8796a0.9398,0.9398 0 0 1 0.9398,-0.9398l0,0zM8.0518,12.0396a0.508,0.508 0 1 0 1.016,0 0.508,0.508 0 1 0 -1.016,0z&#xa;" stroke-width="0"/>
            <circle gorn="0.1.28.8" connectorname="5" r="0.7239" cx="11.0998" stroke="#F7BD13" id="connector4pad" fill="none" cy="12.0396"  stroke-width="0.4318"/>
            <path stroke="none" fill="#F7BD13"  d="m11.0998,10.16a0.9398,0.9398 0 0 1 0.9398,0.9398l0,1.8796a0.9398,0.9398 0 0 1 -0.9398,0.9398l-0,0a0.9398,0.9398 0 0 1 -0.9398,-0.9398l0,-1.8796a0.9398,0.9398 0 0 1 0.9398,-0.9398l0,0zM10.5918,12.0396a0.508,0.508 0 1 0 1.016,0 0.508,0.508 0 1 0 -1.016,0z&#xa;" stroke-width="0"/>
            <circle gorn="0.1.28.10" connectorname="6" r="0.7239" cx="13.6398" stroke="#F7BD13" id="connector5pad" fill="none" cy="12.0396"  stroke-width="0.4318"/>
            <path stroke="none" fill="#F7BD13"  d="m13.6398,10.16a0.9398,0.9398 0 0 1 0.9398,0.9398l0,1.8796a0.9398,0.9398 0 0 1 -0.9398,0.9398l-0,0a0.9398,0.9398 0 0 1 -0.9398,-0.9398l0,-1.8796a0.9398,0.9398 0 0 1 0.9398,-0.9398l0,0zM13.1318,12.0396a0.508,0.508 0 1 0 1.016,0 0.508,0.508 0 1 0 -1.016,0z&#xa;" stroke-width="0"/>
            <circle gorn="0.1.28.12" connectorname="7" r="0.7239" cx="16.1798" stroke="#F7BD13" id="connector6pad" fill="none" cy="12.0396"  stroke-width="0.4318"/>
            <path stroke="none" fill="#F7BD13"  d="m16.1798,10.16a0.9398,0.9398 0 0 1 0.9398,0.9398l0,1.8796a0.9398,0.9398 0 0 1 -0.9398,0.9398l-0,0a0.9398,0.9398 0 0 1 -0.9398,-0.9398l0,-1.8796a0.9398,0.9398 0 0 1 0.9398,-0.9398l0,0zM15.6718,12.0396a0.508,0.508 0 1 0 1.016,0 0.508,0.508 0 1 0 -1.016,0z&#xa;" stroke-width="0"/>
            <circle gorn="0.1.28.14" connectorname="8" r="0.7239" cx="18.7198" stroke="#F7BD13" id="connector7pad" fill="none" cy="12.0396"  stroke-width="0.4318"/>
            <path stroke="none" fill="#F7BD13"  d="m18.7198,10.16a0.9398,0.9398 0 0 1 0.9398,0.9398l0,1.8796a0.9398,0.9398 0 0 1 -0.9398,0.9398l-0,0a0.9398,0.9398 0 0 1 -0.9398,-0.9398l0,-1.8796a0.9398,0.9398 0 0 1 0.9398,-0.9398l0,0zM18.2118,12.0396a0.508,0.508 0 1 0 1.016,0 0.508,0.508 0 1 0 -1.016,0z&#xa;" stroke-width="0"/>
            <circle gorn="0.1.28.16" connectorname="9" r="0.7239" cx="18.7198" stroke="#F7BD13" id="connector8pad" fill="none" cy="1.8796"  stroke-width="0.4318"/>
            <path stroke="none" fill="#F7BD13"  d="m18.7198,0a0.9398,0.9398 0 0 1 0.9398,0.9398l0,1.8796a0.9398,0.9398 0 0 1 -0.9398,0.9398l-0,0a0.9398,0.9398 0 0 1 -0.9398,-0.9398l0,-1.8796a0.9398,0.9398 0 0 1 0.9398,-0.9398l0,0zM18.2118,1.8796a0.508,0.508 0 1 0 1.016,0 0.508,0.508 0 1 0 -1.016,0z&#xa;" stroke-width="0"/>
            <circle gorn="0.1.28.18" connectorname="11" r="0.7239" cx="13.6398" stroke="#F7BD13" id="connector9pad" fill="none" cy="1.8796"  stroke-width="0.4318"/>
            <path stroke="none" fill="#F7BD13"  d="m13.6398,0a0.9398,0.9398 0 0 1 0.9398,0.9398l0,1.8796a0.9398,0.9398 0 0 1 -0.9398,0.9398l-0,0a0.9398,0.9398 0 0 1 -0.9398,-0.9398l0,-1.8796a0.9398,0.9398 0 0 1 0.9398,-0.9398l0,0zM13.1318,1.8796a0.508,0.508 0 1 0 1.016,0 0.508,0.508 0 1 0 -1.016,0z&#xa;" stroke-width="0"/>
            <circle gorn="0.1.28.20" connectorname="13" r="0.7239" cx="8.5598" stroke="#F7BD13" id="connector10pad" fill="none" cy="1.8796"  stroke-width="0.4318"/>
            <path stroke="none" fill="#F7BD13"  d="m8.5598,0a0.9398,0.9398 0 0 1 0.9398,0.9398l0,1.8796a0.9398,0.9398 0 0 1 -0.9398,0.9398l-0,0a0.9398,0.9398 0 0 1 -0.9398,-0.9398l0,-1.8796a0.9398,0.9398 0 0 1 0.9398,-0.9398l0,0zM8.0518,1.8796a0.508,0.508 0 1 0 1.016,0 0.508,0.508 0 1 0 -1.016,0z&#xa;" stroke-width="0"/>
            <circle gorn="0.1.28.22" connectorname="14" r="0.7239" cx="6.0198" stroke="#F7BD13" id="connector11pad" fill="none" cy="1.8796"  stroke-width="0.4318"/>
            <path stroke="none" fill="#F7BD13"  d="m6.0198,0a0.9398,0.9398 0 0 1 0.9398,0.9398l0,1.8796a0.9398,0.9398 0 0 1 -0.9398,0.9398l-0,0a0.9398,0.9398 0 0 1 -0.9398,-0.9398l0,-1.8796a0.9398,0.9398 0 0 1 0.9398,-0.9398l0,0zM5.5118,1.8796a0.508,0.508 0 1 0 1.016,0 0.508,0.508 0 1 0 -1.016,0z&#xa;" stroke-width="0"/>
            <circle gorn="0.1.28.24" connectorname="15" r="0.7239" cx="3.4798" stroke="#F7BD13" id="connector12pad" fill="none" cy="1.8796"  stroke-width="0.4318"/>
            <path stroke="none" fill="#F7BD13"  d="m3.4798,0a0.9398,0.9398 0 0 1 0.9398,0.9398l0,1.8796a0.9398,0.9398 0 0 1 -0.9398,0.9398l-0,0a0.9398,0.9398 0 0 1 -0.9398,-0.9398l0,-1.8796a0.9398,0.9398 0 0 1 0.9398,-0.9398l0,0zM2.9718,1.8796a0.508,0.508 0 1 0 1.016,0 0.508,0.508 0 1 0 -1.016,0z&#xa;" stroke-width="0"/>
            <circle gorn="0.1.28.26" connectorname="16" r="0.7239" cx="0.9398" stroke="#F7BD13" id="connector13pad" fill="none" cy="1.8796"  stroke-width="0.4318"/>
            <path stroke="none" fill="#F7BD13"  d="m0.9398,0a0.9398,0.9398 0 0 1 0.9398,0.9398l0,1.8796a0.9398,0.9398 0 0 1 -0.9398,0.9398l-0,0a0.9398,0.9398 0 0 1 -0.9398,-0.9398l0,-1.8796a0.9398,0.9398 0 0 1 0.9398,-0.9398l0,0zM0.4318,1.8796a0.508,0.508 0 1 0 1.016,0 0.508,0.508 0 1 0 -1.016,0z&#xa;" stroke-width="0"/>
        </g>
    </g>
    <g gorn="0.2" id="silkscreen" />
</svg>
